<svg xmlns="http://www.w3.org/2000/svg" width="27.547" height="28.163" viewBox="0 0 27.547 28.163">
  <g id="blog_1_" data-name="blog (1)" transform="translate(-5.668 0.102)">
    <path id="Path_908" data-name="Path 908" d="M6.06,86.1A2.53,2.53,0,0,0,8.4,88.345l.3.021a1.417,1.417,0,0,1,1.321,1.413V92.6a1.145,1.145,0,0,0,1.838.911,20.991,20.991,0,0,0,4.328-4.222,1.412,1.412,0,0,1,1.17-.6q5.185.026,10.37-.337a2.527,2.527,0,0,0,2.146-1.525,2.488,2.488,0,0,0,.189-.718,64.283,64.283,0,0,0,0-14.03,2.526,2.526,0,0,0-2.335-2.243,137.814,137.814,0,0,0-15.447-.217q-1.941.08-3.883.217A2.527,2.527,0,0,0,6.06,72.073a64.273,64.273,0,0,0,0,14.024Z" transform="translate(-0.008 -65.682)" fill="#fff"/>
    <path id="Path_909" data-name="Path 909" d="M8.27,72.068a64.237,64.237,0,0,0,0,14.024,2.531,2.531,0,0,0,2.336,2.248l.3.021a1.416,1.416,0,0,1,1.321,1.412v2.817a1.138,1.138,0,0,0,.123.521q-.26.2-.5.391a1.145,1.145,0,0,1-1.838-.912V89.774a1.416,1.416,0,0,0-1.322-1.412l-.3-.021a2.529,2.529,0,0,1-2.335-2.248,64.244,64.244,0,0,1,0-14.024,2.528,2.528,0,0,1,2.336-2.243q1.94-.136,3.883-.217,3.459-.145,6.918-.117-2.35.017-4.7.117-1.94.08-3.883.217A2.528,2.528,0,0,0,8.27,72.068Z" transform="translate(0 -65.678)" fill="#aaaaab"/>
    <g id="Group_95" data-name="Group 95" transform="translate(8.728 8.24)">
      <path id="Path_910" data-name="Path 910" d="M71.779,151.2H61.934a.423.423,0,0,1,0-.847h9.844a.423.423,0,1,1,0,.847Z" transform="translate(-61.511 -150.353)" fill="#404a4a"/>
      <path id="Path_911" data-name="Path 911" d="M71.779,190H61.934a.423.423,0,0,1,0-.847h9.844a.423.423,0,1,1,0,.847Z" transform="translate(-61.511 -187.026)" fill="#404a4a"/>
      <path id="Path_912" data-name="Path 912" d="M71.779,228.8H61.934a.423.423,0,1,1,0-.847h9.844a.423.423,0,1,1,0,.847Z" transform="translate(-61.511 -223.7)" fill="#404a4a"/>
      <path id="Path_913" data-name="Path 913" d="M71.779,267.6H61.934a.423.423,0,1,1,0-.847h9.844a.423.423,0,1,1,0,.847Z" transform="translate(-61.511 -260.374)" fill="#404a4a"/>
      <path id="Path_914" data-name="Path 914" d="M65.794,306.4h-3.86a.423.423,0,0,1,0-.847h3.86a.423.423,0,0,1,0,.847Z" transform="translate(-61.511 -297.047)" fill="#404a4a"/>
    </g>
    <g id="Group_96" data-name="Group 96" transform="translate(20.371 0)">
      <path id="Path_915" data-name="Path 915" d="M274.373,338.6a.424.424,0,0,1-.36-.645l.3-.487a.423.423,0,0,1,.722.443l-.3.487A.423.423,0,0,1,274.373,338.6Z" transform="translate(-273.95 -318.78)" fill="#404a4a"/>
      <path id="Path_916" data-name="Path 916" d="M401.082,51.627a.424.424,0,0,1-.421-.378c-.087-.8.786-2.154,2.217-4.295,1.173-1.755,2.5-3.743,2.689-4.9a1.756,1.756,0,0,0-1.269-2.083.423.423,0,1,1,.3-.791,2.6,2.6,0,0,1,1.8,3.009c-.216,1.337-1.54,3.318-2.822,5.234-.952,1.424-2.138,3.2-2.079,3.732a.424.424,0,0,1-.375.467Z" transform="translate(-393.711 -37.01)" fill="#fff" stroke="#707070" stroke-width="0.2"/>
      <path id="Path_917" data-name="Path 917" d="M427.638,3.256l.8-1.489a.775.775,0,0,0-.314-1.05L426.973.093a.775.775,0,0,0-1.05.314l-.8,1.489" transform="translate(-416.834 0)" fill="#fff" stroke="#707070" stroke-width="0.2"/>
      <path id="Path_918" data-name="Path 918" d="M427.919.605a.775.775,0,0,0-1.05.314l-.8,1.489-.947-.511.8-1.489a.775.775,0,0,1,1.05-.314Z" transform="translate(-416.833 0)" fill="none"/>
      <path id="Path_919" data-name="Path 919" d="M288.735,36.21a32.233,32.233,0,0,1-2.875,6.956c-.549,1.016-1.118,1.973-1.686,2.847q-.237.363-.473.707c-2.116,3.084-4.155,4.942-5.089,4.437s-.5-3.227.921-6.688q.157-.385.333-.783c.419-.955.907-1.955,1.456-2.971a32.254,32.254,0,0,1,4.24-6.219,1.163,1.163,0,0,1,1.41-.236l.36.236.829.406a1.162,1.162,0,0,1,.576,1.309Z" transform="translate(-277.888 -32.25)" fill="#fff" stroke="#707070" stroke-width="0.2"/>
      <path id="Path_921" data-name="Path 921" d="M308.577,210.99q-.237.363-.473.707l-4.168-2.251q.158-.385.333-.783Z" transform="translate(-302.292 -197.227)" fill="#707070"/>
    </g>
  </g>
</svg>
