<svg xmlns="http://www.w3.org/2000/svg" width="27.637" height="22.532" viewBox="0 0 27.637 22.532">
  <g id="Group_125" data-name="Group 125" transform="translate(874.1 -5883.9)">
    <g id="contact-us_1_" data-name="contact-us (1)" transform="translate(-874 5884)">
      <path id="Path_935" data-name="Path 935" d="M21.809,58.711a5.627,5.627,0,0,1,1.678.254v-10.5a.827.827,0,0,0-.825-.825H.825A.827.827,0,0,0,0,48.461V63.309a.827.827,0,0,0,.825.825h15.36A5.628,5.628,0,0,1,21.809,58.711Z" transform="translate(0 -47.636)" fill="#fff" stroke="#707070" stroke-width="0.2"/>
      <path id="Path_937" data-name="Path 937" d="M22.7,202.864l-4.332-3.94-1.179,1.054a2.089,2.089,0,0,1-2.784,0l-1.179-1.054-8.943,8.134a.822.822,0,0,0,.6.257h15.36a5.623,5.623,0,0,1,2.462-4.451Z" transform="translate(-4.049 -190.817)" fill="#fff" stroke="#707070" stroke-width="0.2"/>
      <path id="Path_939" data-name="Path 939" d="M26.71,47.636H4.873a.822.822,0,0,0-.6.257L14.4,56.939a2.089,2.089,0,0,0,2.784,0l10.122-9.046A.822.822,0,0,0,26.71,47.636Z" transform="translate(-4.048 -47.636)" fill="#fff" stroke="#707070" stroke-width="0.2"/>
      <circle id="Ellipse_46" data-name="Ellipse 46" cx="5.834" cy="5.834" r="5.834" transform="translate(15.77 10.664)" fill="#fff" stroke="#707070" stroke-width="0.2"/>
      <path id="Path_942" data-name="Path 942" d="M336.482,286.46a.358.358,0,0,1-.358-.358,2.387,2.387,0,1,0-.233,1.027,1.186,1.186,0,0,0,1.776-1.027,3.929,3.929,0,1,0-.676,2.2.414.414,0,1,0-.685-.465,3.1,3.1,0,1,1,.533-1.74.358.358,0,0,1-.358.358Zm-2.744,1.2A1.558,1.558,0,1,1,335.3,286.1,1.56,1.56,0,0,1,333.739,287.661Z" transform="translate(-312.135 -269.605)" fill="#707070"/>
    </g>
  </g>
</svg>
