<svg id="github-original" xmlns="http://www.w3.org/2000/svg" width="18.11" height="17.663" viewBox="0 0 18.11 17.663">
  <path id="Path_865" data-name="Path 865" d="M12.667,5.1A9.056,9.056,0,0,0,9.8,22.75c.452.084.619-.2.619-.436,0-.216-.008-.929-.012-1.686-2.519.548-3.051-1.068-3.051-1.068a2.4,2.4,0,0,0-1.005-1.325c-.822-.562.062-.55.062-.55a1.9,1.9,0,0,1,1.388.933,1.928,1.928,0,0,0,2.635.753,1.929,1.929,0,0,1,.575-1.211C9,17.932,6.889,17.155,6.889,13.685a3.505,3.505,0,0,1,.933-2.431,3.252,3.252,0,0,1,.088-2.4s.76-.243,2.491.928a8.582,8.582,0,0,1,4.535,0c1.728-1.172,2.488-.928,2.488-.928a3.249,3.249,0,0,1,.089,2.4,3.5,3.5,0,0,1,.932,2.431c0,3.478-2.118,4.244-4.135,4.468a2.164,2.164,0,0,1,.614,1.677c0,1.212-.01,2.187-.01,2.485,0,.241.163.523.622.434A9.056,9.056,0,0,0,12.667,5.1Z" transform="translate(-3.612 -5.103)" fill="#f5f5f7" fill-rule="evenodd"/>
  <path id="Path_866" data-name="Path 866" d="M25.108,90.937c-.02.045-.091.058-.155.028s-.1-.091-.081-.136.09-.059.156-.028.1.091.081.136ZM25,90.855m.478.492c-.043.04-.127.021-.185-.042a.138.138,0,0,1-.027-.188c.045-.04.127-.021.186.042s.071.148.025.188Zm-.086-.093.443.614c-.055.039-.146,0-.2-.078s-.055-.177,0-.216.145,0,.2.076.055.178,0,.218Zm0,0,.489.5c-.049.055-.155.04-.233-.034a.175.175,0,0,1-.051-.232c.05-.055.157-.04.235.034s.1.177.05.231Zm0,0,.675.293c-.022.071-.124.1-.226.073s-.169-.114-.148-.186.123-.1.227-.073S27.017,92.592,27,92.664Zm0,0,.741.054c0,.075-.084.136-.192.138s-.2-.058-.2-.132.085-.136.193-.139.2.058.2.132Zm0,0,.689-.117c.013.073-.062.148-.169.167s-.2-.026-.216-.1.063-.149.168-.169.2.025.217.1Zm0,0" transform="translate(-21.679 -77.936)" fill="#f5f5f7"/>
</svg>
