<svg xmlns="http://www.w3.org/2000/svg" width="24" height="23.99" viewBox="0 0 24 23.99">
  <path id="postcss_1_" data-name="postcss (1)" d="M11.627.008a6.922,6.922,0,0,0-.705.064c-.227.025-.453.065-.672.1-.267.032-.534.049-.8.081-.251.033-.51.081-.761.122C8.6.39,8.508.422,8.418.438A5.113,5.113,0,0,0,7.827.56c-.348.106-.7.228-1.037.357a9.567,9.567,0,0,0-.924.43c-.308.17-.6.372-.891.568-.276.187-.551.381-.819.592a9.7,9.7,0,0,0-.737.657c-.129.129-.235.284-.357.43-.2.236-.4.462-.6.706-.161.2-.308.414-.462.625a10.344,10.344,0,0,0-.728,1.168c-.089.162-.17.325-.251.486-.122.243-.251.479-.365.73a3.085,3.085,0,0,0-.195.543c-.113.4-.227.8-.332,1.2A4.533,4.533,0,0,0,0,10.15a7.7,7.7,0,0,0,.056.965c.008.081-.04.179.057.243-.032.089-.008.139.04.154-.056.089.025.147-.007.228-.008.016.025.048.04.073a.287.287,0,0,0,0,.081,1.775,1.775,0,0,1,.041.227c0,.057.049.122.065.179a.094.094,0,0,1-.016.081c-.049.057-.041.105.032.138a.306.306,0,0,1,.017.2c.016.073-.008.1,0,.113a1.066,1.066,0,0,1,.1.422.308.308,0,0,0,.033.106.992.992,0,0,1,0,.154.707.707,0,0,1,.113-.049,2.6,2.6,0,0,0,.081.292c.041.065.041.1.025.1a2.513,2.513,0,0,0,.1.422,2.769,2.769,0,0,0-.04-.454,1.063,1.063,0,0,0,.275.081.713.713,0,0,1,.025-.073C.99,13.793.95,13.72.9,13.671a.251.251,0,0,1,0,.114c-.032-.017-.073-.033-.113-.049A1.48,1.48,0,0,1,.9,13.607c0-.073-.04-.138-.154-.13.049-.016.1-.04.154-.057.089-.048-.008-.137-.008-.251a2.113,2.113,0,0,0-.1-.422c-.041-.227-.032-.568-.057-.795-.049-.041-.089.065-.1.073.025.195.049.389.065.584-.048-.162-.081-.341-.121-.536a.89.89,0,0,0-.016.114c-.04.04-.008.089.016.146a.26.26,0,0,0-.122-.016v.227a1.12,1.12,0,0,1-.146-.2c-.016-.065-.025-.129-.04-.194a.172.172,0,0,0,0-.089q-.014-.1-.025-.2a.661.661,0,0,0-.008-.129,1.306,1.306,0,0,0,.146.015c-.081-.1-.025-.17.008-.235.016-.033.073-.04.089-.073.065-.122.17-.219.17-.373,0-.073.025-.154.033-.227.016-.138.032-.276.04-.414A3.758,3.758,0,0,1,.772,9.9c.065-.283.146-.568.235-.852.065-.2.138-.4.219-.6a9.378,9.378,0,0,1,.389-.933c.219-.438.47-.86.713-1.29.154-.268.316-.519.487-.779s.323-.511.51-.747a6.6,6.6,0,0,1,.859-.917c.324-.292.632-.592.98-.86A9.848,9.848,0,0,1,6.606,2a11.043,11.043,0,0,1,1.272-.552c.276-.105.575-.154.859-.243a3.407,3.407,0,0,1,.988-.162c.219-.008.429-.033.648-.057q.3-.023.6-.056a.347.347,0,0,0-.041.064c-.089.13-.186.26-.275.39-.073.106-.154.219-.227.324-.13.171-.268.341-.389.52-.186.268-.357.544-.551.811s-.4.5-.607.754c-.267.349-.519.706-.786,1.055-.243.332-.5.649-.737.982-.211.292-.4.6-.6.9-.3.446-.6.884-.9,1.331q-.353.51-.713,1.014c-.016.025-.041.032-.065.048a1.131,1.131,0,0,0-.089.211c-.065.122-.129.243-.2.357-.041.065-.1.121-.146.186-.008-.1.129-.146.064-.268-.04.065-.081.122-.121.187l-.1.194c.032.024.086.041.034.087-.005-.019-.033-.032-.053-.047h0q-.1.142-.194.292c.049.04.073.024.1-.033a.983.983,0,0,1,.109-.154q-.02.038-.042.074a.3.3,0,0,0,.089-.082.489.489,0,0,1-.089.235.646.646,0,0,1-.17.162c.008.008.065.033.073.041.073-.025.1-.065.106-.041a.355.355,0,0,0,.056-.081.294.294,0,0,1,.162-.179.322.322,0,0,0,.081-.064c.243-.252.494-.495.713-.763.34-.414.648-.844.973-1.265.137-.179.3-.357.445-.528a2.994,2.994,0,0,1,0,.536c-.025.3-.041.6-.064.908-.008.122,0,.243-.009.365,0,.032-.024.057-.024.089,0,.081.024.17.024.252-.025.3-.057.592-.082.892a.484.484,0,0,0,.04.187c-.04.438.049.9-.024,1.363a.364.364,0,0,0,.073-.2,1.027,1.027,0,0,0,0-.154V11.8a2.819,2.819,0,0,0,.024-.446,1.515,1.515,0,0,1,.016-.47c.016-.065-.008-.146.033-.227v.122a11.353,11.353,0,0,1-.056,1.387c-.008.041.024.114-.065.106-.073.146.016.252-.065.333-.017.016.016.089.024.138-.033.1-.033.1.016.106.008.179.025.34.032.511a4.158,4.158,0,0,0,.122-.942,3.224,3.224,0,0,1,.008.4c0,.212-.008.414-.016.625a.646.646,0,0,1-.016.122,2.226,2.226,0,0,1-.073.333.913.913,0,0,0-.016.3V14.5c.032.138-.008.211.016.292-.025.082-.032.106-.025.13l.025.122c.162-.016.089.106.154.17a.136.136,0,0,0-.032.122,1.827,1.827,0,0,1-.016.211c0,.186-.008.373-.008.552,0,.025.008.048.008.073s-.008.228-.008.228c.016.024,0,.048-.025.073-.008,0-.032-1.03-.032-1.03H6.728a8.519,8.519,0,0,1-.064,1.379,2.114,2.114,0,0,1-.235.024c-.251,0-.5,0-.753.008-.3,0-.591.008-.891.008-.145,0-.3.017-.445.017-.195,0-.4-.025-.591-.025-.3,0-.592.025-.892.033-.219.008-.437.008-.656.016-.146.008-.293.016-.438.032a1.287,1.287,0,0,0-.2.056.686.686,0,0,0-.129,0c-.082.016-.154.065-.235.081-.122.025-.154.056-.138.178v.081c-.008.016.178-.025.178-.025-.017,0-.025.049-.049.089l.146-.057a1.262,1.262,0,0,0,.324.049,6.393,6.393,0,0,0,.964.146c.211.016.414.025.624.032.3.016.6.033.9.033.251,0,.494-.024.745-.024.348,0,.7.016,1.045.024.073,0,.154-.008.235-.008h.591c.527-.016,1.054-.025,1.58-.04.3-.009.608-.025.907-.033l.924-.025c.356-.008.713-.008,1.062-.015.267,0,.526-.009.794-.017.3-.008.607-.032.907-.048.162-.008.325-.025.486-.041.195-.016.4-.04.591-.048.292-.017.592-.024.884-.041.365-.024.729-.057,1.1-.065.341-.016.689-.008,1.029-.016.3-.008.6-.025.907-.033l.511-.025s.34-.008.51-.024c.292-.016.583-.048.875-.056.186-.008.373,0,.559-.008.3-.008.608-.025.907-.025.113,0,.235.017.381.025-.065.057-.105.089-.154.13a.5.5,0,0,1,.1.041.218.218,0,0,1-.129.04.5.5,0,0,0-.049.138h.146c-.057,0-.1.073-.162.122a.118.118,0,0,0-.154.089c.057.032.049.056.041.089-.1.032-.17.065-.129.17-.033.016-.073.032-.114.057-.04.065-.113.081-.1.17.033.008.065.025.089.032-.041.016-.081.04-.122.056-.146.089-.081.13-.049.171a.349.349,0,0,1-.073.041c.016.073.04.089.048.089l-.085.068a.167.167,0,0,1,.01-.026h-.032a.225.225,0,0,0,.005.04l-.019.015a.558.558,0,0,1-.089.154,1.545,1.545,0,0,1-.089.162,2.965,2.965,0,0,1-.51.552,1.759,1.759,0,0,0-.227.2c-.146.138-.275.292-.429.422-.2.17-.412.324-.632.478-.267.187-.534.373-.8.552-.146.1-.308.17-.462.259s-.3.17-.454.26a2.44,2.44,0,0,1-.292.2c-.267.114-.551.211-.826.317s-.462.211-.665.284a4.563,4.563,0,0,1-.575.154,1.847,1.847,0,0,1-.211.009c-.138.025-.275.057-.413.073-.356.049-.713.081-1.069.13-.211.025-.414.065-.625.089-.146.008-.3-.008-.445-.008a2.221,2.221,0,0,1-.324.009c-.17-.025-.34-.065-.511-.1-.04-.008-.1-.025-.129-.008-.065.033-.122-.016-.187,0-.04.008-.081-.024-.121-.024s-.073.009-.114,0a.754.754,0,0,0-.268-.049,1.058,1.058,0,0,1-.3-.065l-.43-.1a.731.731,0,0,1-.162-.073,1.32,1.32,0,0,1-.478-.057.729.729,0,0,0-.34-.081c-.032.008-.057-.008-.089-.008-.025-.033-.048-.1-.072-.1-.162.008-.259-.129-.4-.17-.073-.025-.129-.106-.2-.13-.179-.073-.324-.227-.526-.251a1.2,1.2,0,0,1-.2-.065.734.734,0,0,0,.065.081c-.235-.114-.454-.243-.673-.365-.032-.008-.056-.04-.081-.057l-.219-.147a.242.242,0,0,1-.2-.04c-.219-.154-.47-.252-.681-.422a1.335,1.335,0,0,1-.259-.211,1.281,1.281,0,0,0-.406-.316c-.121-.065-.235-.138-.348-.211a.215.215,0,0,1-.114-.179c0-.057-.024-.114-.1-.081-.032-.049-.065-.105-.105-.122a.851.851,0,0,1-.235-.179c-.073-.065-.129-.154-.218-.186a.963.963,0,0,1-.357-.316c-.227-.268-.43-.56-.64-.844a.568.568,0,0,0-.073-.065,2.214,2.214,0,0,0,.113.243.485.485,0,0,1-.186-.146c-.008.008.559.941.559.941.049.073.089.146.138.219a.25.25,0,0,1-.243-.13.3.3,0,0,0-.316-.194,1.4,1.4,0,0,1-.04-.179.616.616,0,0,1-.114-.009c.114.179.211.333.316.511-.041-.025-.065-.041-.082-.049.146.154.251.349.437.446.041.186.251.276.3.454L3.2,20.039c-.065-.081-.138-.162-.21-.251a.407.407,0,0,0,.073.146,3.131,3.131,0,0,0,.3.349c.041.041.1.058.1.131a.262.262,0,0,0,.113.04c.017.049-.007.122.089.106.065.122.129.122.218.081.106.106.162.114.235.049,0,.04.008.081.008.114.032-.016.025-.041.025-.081.04.032.064.049.081.065a1.378,1.378,0,0,0,.267.308c.154.13.292.268.437.39a6.19,6.19,0,0,0,.916.608c.389.219.762.455,1.159.665a6.231,6.231,0,0,0,1.515.544c.195.041.381.081.576.129.169.049.34.122.51.163.259.057.526.106.786.154l.179.025c.072.016.161-.016.178.008.041.065.073.032.122.024a.7.7,0,0,1,.186-.016,6.316,6.316,0,0,0,.672.04c.049,0,.122-.041.163.04a.561.561,0,0,1,.146-.04c.009.073,0,.073-.016.081a.332.332,0,0,0-.073.04,1.819,1.819,0,0,0,.81,0,2.72,2.72,0,0,0,1.135-.138c.032.041.057.1.105.016.016-.025.056-.033.089-.041a.45.45,0,0,1,.227-.025c.073.025.1-.04.154-.04a1.492,1.492,0,0,0,.276-.024,1.573,1.573,0,0,0,.154-.049.394.394,0,0,0-.179-.041q.137-.067.276-.129c-.016.024-.033.056-.065.056h.113c-.025,0-.057.073-.1.122l.818-.2c-.089-.17.1-.113.162-.211-.081.025-.162.049-.243.065.276-.138.559-.259.834-.381a.525.525,0,0,1-.162.114c.049.008.081.008.105.015.129.041.1-.081.138-.154a.753.753,0,0,0,.292-.049c.081-.025.162-.049.243-.081.129-.057.251-.129.381-.194a.352.352,0,0,1,.1,0c.089-.057.121-.106.145-.1a.183.183,0,0,0,.227-.129l.023-.017c.032.072.1.079.2.007a1.329,1.329,0,0,1-.187-.016c-.006,0-.008,0-.011.006.041-.03.078-.059.11-.078.178-.1.348-.194.526-.292a.34.34,0,0,0,.113-.008c.106-.049.2-.105.3-.162a.7.7,0,0,1-.081-.04,1.055,1.055,0,0,0,.154-.041,5.865,5.865,0,0,1,.664-.561c.089-.008.089-.032.089-.048a.766.766,0,0,1,.1-.122c.179-.162.372-.3.535-.47.235-.236.462-.479.672-.731a6.65,6.65,0,0,0,.551-.706c.227-.349.421-.706.624-1.071.146-.259.276-.519.422-.778.015-.025.048-.057.072-.057.219-.025.438-.04.649-.065a.606.606,0,0,0,.154-.065c-.025-.041-.041-.089-.065-.13s-.081-.089-.114-.139a.781.781,0,0,1-.081-.138c-.025-.04-.049-.073-.073-.114a2.948,2.948,0,0,1-.139-.275.171.171,0,0,1-.016-.089c.146-.316.2-.657.34-.973a4.964,4.964,0,0,0,.243-1.038c.057-.333.089-.665.129-1,.025-.235.057-.462.065-.7a6.768,6.768,0,0,0,.024-1.071c-.008-.308-.025-.624-.04-.933h0c-.016-.316-.024-.633-.057-.949-.057-.43-.113-.868-.211-1.29a7.293,7.293,0,0,0-.316-1.014,12.141,12.141,0,0,0-.5-1.16,17.873,17.873,0,0,0-1.11-1.7c-.252-.357-.576-.649-.819-1.014a2.489,2.489,0,0,0-.543-.551c-.324-.26-.664-.5-1-.723-.259-.179-.518-.349-.794-.5-.219-.122-.454-.22-.68-.325a3.469,3.469,0,0,0-.8-.325A1.828,1.828,0,0,1,16.9.825C16.714.76,16.536.687,16.349.63,16.066.541,15.79.436,15.5.363A7.791,7.791,0,0,0,14.632.2c-.324-.048-.656-.064-.98-.1-.211-.025-.421-.049-.624-.057C12.72.031,12.4.031,12.1.023a4.5,4.5,0,0,0-.47-.016Zm.694.94c.106.017.2.033.3.041l.389.025c.292.024.583.04.875.08.243.033.487.082.738.122a10.4,10.4,0,0,1,1.572.406c.3.1.591.227.884.349a17.954,17.954,0,0,1,1.9.933,1.9,1.9,0,0,1,.453.43c.211.219.422.438.624.665.235.268.453.544.681.82.2.243.413.486.616.73a2.523,2.523,0,0,1,.17.243c.129.195.275.381.389.592a3.44,3.44,0,0,1,.186.5c.081.252.162.495.243.746.056.187.1.382.145.576.033.13.025.268.065.4.049.171,0,.357.049.528.008.016.015.04.024.057.032.032.056.065.008.113a.09.09,0,0,0,0,.064.319.319,0,0,0,.041-.057c0,.016.008.025.008.033a.378.378,0,0,0,0,.1A.175.175,0,0,0,22.7,9.5a.644.644,0,0,1,.065-.049,3.215,3.215,0,0,1,.081.836,1.894,1.894,0,0,1-.065.8c.024-.089-.032-.171-.008-.252l0,0a.4.4,0,0,1-.065-.057c-.008.025,0,.049-.016.081-.008-.024-.065-.016-.065-.04-.008.113.048.227.04.34.025-.016.122-.025.146-.049a.064.064,0,0,0,.033.016c-.162.122-.122.243-.049.382.016.032.065.1.016.162-.016.016.008.065.016.106h.024v.016l-.073.024c-.016-.025-.113-.073-.113-.114v.414c.081.025.081.138.113.195a.24.24,0,0,0,.033-.064l.008.008a.954.954,0,0,1-.032.146,1.872,1.872,0,0,0-.04.211c0,.008.016.025.016.032a2.453,2.453,0,0,0-.072.64c-.025.154,0,.317-.016.479a4.068,4.068,0,0,1-.081.422c-.008.025-.024.033-.065.049a.657.657,0,0,0-.008-.252c-.009,0-.114-.057-.122-.057a2.681,2.681,0,0,0,.089.4c-.025-.008-.122-.065-.129-.065-.017.1-.017.227-.025.333-.008.081-.081.154-.089.243,0,.049.057.081.049.163h.065c0-.162.073-.308.073-.479h.024c.008.016.033.033.025.041a1.061,1.061,0,0,0-.041.276c0,.049.04.1.025.154a.792.792,0,0,0-.033.17.448.448,0,0,1-.016-.081l-.089-.008c-.008.049.057.1.049.138-.008.008-.016.008-.032.016l-.267-.39q-.319-.464-.632-.933a1.949,1.949,0,0,1-.146-.243,11.368,11.368,0,0,0-.834-1.242c-.235-.3-.422-.625-.64-.941-.2-.3-.4-.592-.607-.893-.073-.1-.162-.186-.227-.292-.21-.333-.4-.673-.607-1.006-.179-.276-.373-.544-.559-.811-.065-.089-.129-.187-.195-.284a.112.112,0,0,1-.016-.056c-.016-.179-.032-.357-.041-.528s.016-.324.016-.495V6.96c0-.041.008-.073.008-.114.008-.008.016-.024.024-.032-.235,0-.478-.009-.713,0a.394.394,0,0,1-.34-.171,13.368,13.368,0,0,1-.8-1.119c-.251-.357-.51-.706-.77-1.055-.211-.284-.422-.56-.632-.844-.235-.325-.462-.649-.7-.974-.292-.389-.592-.779-.891-1.168-.139-.179-.292-.349-.446-.536Zm-.752.426a.092.092,0,0,1,.05.038c.219.276.437.56.656.836.163.2.325.4.479.608.186.26.364.519.551.779.211.3.421.6.624.908.308.455.6.909.907,1.363.227.332.454.657.672.99h-.414c-.381-.008-.77-.04-1.15-.024-.519.025-1.045.081-1.563.122-.656.057-1.321.064-1.976.064-.236,0-.47.033-.7.049-.284.016-.559.032-.843.04-.333.017-.656.025-.988.033-.187.008-.381,0-.583,0v0c.259-.357.526-.714.786-1.079.081-.106.146-.22.227-.325a.533.533,0,0,1,.1-.082l-.008-.015a.813.813,0,0,0,.081-.106,1.543,1.543,0,0,0,.1-.211A.119.119,0,0,1,8.6,5.329c.114.057.114-.065.154-.106q.109-.123.211-.251A1.7,1.7,0,0,0,9.1,4.778c.008-.025-.017-.065-.025-.1H9.051c.025-.016.049-.04.073-.057.008,0,.008,0,.016-.008q.07-.107.146-.211A3.494,3.494,0,0,1,9.6,4.032c-.016.04-.032.081-.049.113.008,0,.008.008.016.008.1-.13.2-.252.3-.382-.008-.008-.016-.016-.025-.016-.04.041-.073.081-.113.122-.008-.008-.016-.016-.025-.016.082-.106.163-.211.243-.333a1.206,1.206,0,0,1,.064.122c.033-.081.065-.138.089-.195-.024.025-.056.049-.081.073L10,3.5l.146-.218c.154-.219.308-.447.462-.666.057-.081.129-.146.179-.227a8.666,8.666,0,0,1,.583-.836,1.318,1.318,0,0,1,.146-.154c.02-.025.038-.033.055-.03ZM9.284,4.535c-.048.032-.089.057-.138.089h0c-.008.008-.016.008-.009.008.008.04.008.073.016.129.057-.082.1-.146.146-.211Zm6.838,3.342a.16.16,0,0,1,.154.089c.073.122.146.243.226.365a.149.149,0,0,1,.025.064c0,.179,0,.365.008.544s.025.365.032.552-.016.381-.008.576c.008.276.016.56.016.844h0v.073c-.008,0-.016.008-.032.008-.032-.114-.065-.236-.105-.349a2.724,2.724,0,0,0-.316-.682c-.163-.227-.308-.462-.47-.7a1.235,1.235,0,0,0-.146-.154,2.82,2.82,0,0,0-.559-.519,6.616,6.616,0,0,0-1.013-.52,2.283,2.283,0,0,1-.283-.146h.194L15.231,7.9c.3-.008.592-.008.891-.024Zm-6.084.212a1.307,1.307,0,0,1,.178.008,2.843,2.843,0,0,0-.373.211c-.146.1-.283.227-.429.333a2.43,2.43,0,0,0-.4.373c-.154.186-.324.348-.486.527a4.957,4.957,0,0,0-.34.39c-.138.179-.259.372-.389.576.041-.771.089-1.533.057-2.312h0c.381-.016.745-.041,1.118-.057.291-.016.591-.025.882-.041.061,0,.12-.008.179-.008Zm2.033.415c.242.008.485.008.728.024a1.241,1.241,0,0,1,.3.064,3.03,3.03,0,0,1,.364.154,4.2,4.2,0,0,1,.4.244c.235.154.454.324.689.462a1.828,1.828,0,0,1,.551.536,2.477,2.477,0,0,1,.462.787l.121.536a.649.649,0,0,1,.057.308c-.041.2-.073.414-.106.617a.833.833,0,0,0-.024.243,1.525,1.525,0,0,1-.179.7c-.033.073-.081.146-.122.227a.243.243,0,0,0,.064.033l.073-.146c.008,0,.008,0,.016.008-.041.113-.073.235-.114.349-.1.252-.194.511-.316.754a4.032,4.032,0,0,1-.259.382c-.081.113-.146.235-.227.341a1.14,1.14,0,0,1-.243.243,6.222,6.222,0,0,1-.681.455,1.7,1.7,0,0,1-.478.178h0a6.607,6.607,0,0,1-.794.171,4.935,4.935,0,0,1-.7.024c-.211,0-.414-.008-.624-.024a2.1,2.1,0,0,1-.7-.154c-.195-.089-.4-.17-.591-.268a1.565,1.565,0,0,1-.536-.389,3.054,3.054,0,0,0-.38-.349.383.383,0,0,0,.17.235c-.041.049-.1.025-.179-.106a.448.448,0,0,1-.064.033c.025-.057.049-.114.073-.162-.032-.065-.073-.138-.105-.2q-.1-.159-.186-.324c-.016-.025-.016-.049-.032-.073-.041-.049-.081-.1-.114-.146a3.289,3.289,0,0,0-.2-.3c0,.025.008.049.008.081a.028.028,0,0,0-.016.008l-.17-.414c-.008,0-.008,0-.016.008l.145.536c-.008,0-.016.008-.024.008a.492.492,0,0,1-.065-.1c-.016-.065-.065-.065-.105-.041a.11.11,0,0,0-.033.1c.057.138.122.276.187.414a.965.965,0,0,0,.056.138c.008.016.033.032.033.056a1.433,1.433,0,0,0,.1.187c.073.1.154.194.227.292s.137.2.2.3c.008.016.032.016.04.024.041.122.179.211.276.162.025.187.227.252.308.43q-.119-.049-.235-.106c-.008.008-.008.016-.017.032a3.076,3.076,0,0,1,.283.154,2.487,2.487,0,0,1,.235.154.739.739,0,0,0,.348.17.088.088,0,0,0-.015-.033c.227.106.462.219.64.308-.843.017-1.742.033-2.674.049,0-.154-.008-.3-.008-.455a1.368,1.368,0,0,0,.008-.187c-.025-.373-.025-.746-.073-1.111a7.942,7.942,0,0,1-.04-1.161c.008-.21-.008-.429-.017-.64,0-.284,0-.56.009-.844a.3.3,0,0,1,.033-.114h.025c.008.017,0,.041.015.049.025.025.065.065.082.057.048-.033.121-.064.138-.114a.8.8,0,0,0,.057-.3.3.3,0,0,1,.064-.17.727.727,0,0,0,.041-.081c-.032-.025-.065-.041-.105-.073.033-.089.024-.195.146-.243.016-.008.016-.049.025-.073.008-.066.015-.139.024-.2a.268.268,0,0,0,.04.048.133.133,0,0,1,.017-.025c0-.032-.008-.1,0-.1.1-.016.057-.122.105-.17.008-.009-.008-.033-.008-.049s0-.04.008-.04c.113-.025.1-.146.17-.2.025-.016.033-.04.065-.081.065.113-.049.17-.057.251.137-.081.178-.276.1-.333a.481.481,0,0,0,.089-.089c.089-.1.186-.186.267-.284.057-.073.089-.162.146-.235a.466.466,0,0,1,.146-.1A.985.985,0,0,0,9.786,9.5a.471.471,0,0,1,.064-.049c.025-.016.073-.016.081-.04s-.016-.057-.032-.081c.032-.016.065-.049.13-.081C10,9.3,10,9.329,9.98,9.362l.04.04c.073-.057.186-.121.259-.17,0-.008-.04-.04-.04-.04-.048.025-.121.065-.194.1.015-.025.015-.041.024-.049a3,3,0,0,1,.348-.2c.283-.129.567-.259.851-.381a.394.394,0,0,1,.17-.008A.182.182,0,0,0,11.5,8.64c.129-.041.259-.081.389-.114a.677.677,0,0,1,.178-.024Zm-.315.121-.235.106h0c0,.008-.04.073-.033.073.041-.008.13-.073.178-.081a.277.277,0,0,1,.082.017.644.644,0,0,1,.008-.114ZM17.613,10a2.537,2.537,0,0,1,.227.308,8.475,8.475,0,0,0,.656.942c.195.268.373.56.551.836.219.333.429.665.648,1,.162.252.333.5.5.747.154.219.316.43.478.641.137.186.283.373.421.56.162.227.324.454.486.673.081.113.17.227.259.34a.987.987,0,0,0,.17.154.063.063,0,0,1-.032-.008.814.814,0,0,0,.057.073c.089.049.1.1.049.17v0c-.008.016-.025.033-.032.049a.476.476,0,0,1-.016-.074c-.049.13-.154.065-.227.065-.437.008-.883.008-1.321.008-.421,0-.85,0-1.272.008-.138,0-.284.032-.422.041-.332.016-.664.025-1,.032-.025,0-.048-.04-.089-.073a.577.577,0,0,1-.049.073c-.009-.016-.024-.032-.041-.056a.448.448,0,0,1-.025.065h-.023a2.34,2.34,0,0,1-.049-.333c0-.243.025-.486.032-.73.008-.113,0-.219,0-.325l.089.065a.692.692,0,0,1,.049-.08.137.137,0,0,1-.033-.024c.015-.008.032-.025.032-.033a.365.365,0,0,0,.024-.065.873.873,0,0,0-.024-.154.031.031,0,0,0,.024-.008l.048.243h.025c-.033-.056.073-.106-.016-.17-.008-.008.008-.057.008-.081a1.609,1.609,0,0,1-.065-.162.2.2,0,0,1,.057-.024.729.729,0,0,0-.081-.04c.081-.073.081-.114.008-.195.017-.008.033-.008.033-.015a1,1,0,0,0-.016-.219c-.016-.082.025-.179-.1-.228a.231.231,0,0,0,.032.064.207.207,0,0,0-.049.025c-.105-.1-.04-.228-.065-.374a1.21,1.21,0,0,1,.138.049c-.016-.057-.057-.122-.081-.195h-.033V13.03c0,.008.057.008.089.017,0-.008.008-.016.008-.025-.025-.032-.057-.065-.089-.105l.016-.016a.289.289,0,0,1-.032-.219v-.568c.081.081-.04.186.081.235v-.081h-.008c-.008-.122-.008-.243-.016-.365H17.6c-.008.017-.008.024-.017.041h-.016Zm-13.652.663c-.1.114-.186.227-.275.34h0c.016.008.04.065.057.082.089-.122.211-.276.3-.39-.008-.008-.073-.024-.081-.032Zm-.543.4c-.049.073-.17.2-.218.276.008.008.1-.032.105-.024.049-.073.1-.154.146-.228a.121.121,0,0,1-.032-.024Zm.032.024h0Zm.137.1c-.048.033-.1.074-.145.106a.045.045,0,0,1,.016.041c-.065-.008-.089.024-.122.113-.008.025-.049.033-.089.064-.008.017-.016.057-.032.1l.008.008a.124.124,0,0,1-.04.025c-.049.048-.106.089-.154.138a.242.242,0,0,0-.016.073c.057-.057.154-.162.227-.227l.008.008c.032-.049.057-.1.089-.146.008.008.008.016.016.024-.025.065-.049.137-.073.2-.017.008-.041.025-.041.016-.032.025-.057.057-.089.081l-.145.1c-.081.073-.162.138-.251.211-.057.089-.113.17-.178.276.1-.025.122.017.114.1.113.016.122-.073.154-.138.008-.017.016-.049.032-.057.073-.065.154-.121.235-.186a.11.11,0,0,0,.016-.073c0-.008-.041-.008-.065-.016.073-.081.178-.219.251-.308.041-.025.081-.057.081-.082a.121.121,0,0,1,.083-.13.47.47,0,0,1-.252.356.137.137,0,0,0,.089.025c.024-.008.04-.049.056-.073l.218-.316.073-.122-.032-.033h0c-.032.057-.065.105-.1.162L3.5,11.489l0,0a.09.09,0,0,1-.041-.056h0a.342.342,0,0,1,.041-.073.164.164,0,0,0,.04-.008c.033-.057.033-.1.065-.146-.008-.008-.016-.008-.025-.016Zm14.059,1h0s0,0,0,.006,0,0,0-.006Zm0,.006a.229.229,0,0,0-.007.067A.244.244,0,0,1,17.646,12.191Zm-.007.147v.008c.008.008.009.008.016,0s-.008,0-.016-.008Zm0,.016c-.024.008-.048.008-.081.016.04.015.079.024.081.039Zm0,.055v0h0Zm-1.191,1.422a18.441,18.441,0,0,0,.211,2.75l-2.787.1h0a3.264,3.264,0,0,0,.939-.624.925.925,0,0,1,.13-.114,2.84,2.84,0,0,0,.818-.827,11.3,11.3,0,0,0,.64-1.193.844.844,0,0,1,.048-.089Zm1.134.073a.546.546,0,0,1,.033.081.324.324,0,0,0,.073-.016.03.03,0,0,1,.008-.024h0c-.024-.008-.056-.024-.113-.04Zm.024.074-.007.006h0a.029.029,0,0,1,.016.008l-.008-.009s0-.006,0-.006ZM1.07,14.01A.2.2,0,0,0,1,14.043c.032.081.073.17.105.252a.242.242,0,0,1,.064-.032c-.033-.081-.065-.17-.1-.252Zm-.228.333c-.024.041-.048.081-.04.113s.04.048.065.073c0-.008.008-.016.016-.024-.016-.057-.024-.106-.041-.162Zm21.657.008c0,.016.008.04,0,.056ZM1.264,14.53a.281.281,0,0,0-.073.033c.065.138.129.284.194.422h0a.63.63,0,0,0,.073-.032,2.8,2.8,0,0,0-.195-.422Zm-.162.324c0,.032-.041.024-.041.056-.048,0-.089-.008-.129-.008-.008.008.024.057.033.065h.17c0-.041-.008-.073-.008-.114Zm7.453.316c.089.138.179.268.276.4h0l-.008.008a.191.191,0,0,1-.057-.032l-.194-.292a.093.093,0,0,1-.016-.081Zm9.043.438h0c-.008.1-.016.17-.016.243,0,.016.016.048.025.048s.048-.008.065-.015a.061.061,0,0,0,.016-.033c-.024-.017-.048-.024-.073-.041.154-.081,0-.122-.016-.2ZM3.484,20.2c.088.1.178.195.267.3-.049-.025-.105-.041-.129-.073-.057-.065-.105-.138-.162-.2Zm.34.284c.025.041.041.089.065.138-.113-.008-.17-.057-.138-.122.025-.008.049-.008.073-.016Zm15.435,1.242a1.182,1.182,0,0,0-.154.04c-.017.033-.033.057-.049.089.008,0,.016.008.025.016a1.823,1.823,0,0,1,.178-.145Zm-.414.226c-.089.057-.186.114-.275.17.008.008.008.017.017.025A.767.767,0,0,0,18.878,22h0C18.87,21.985,18.853,21.968,18.845,21.953ZM14.876,23.5c-.373.105-.494.121-.535.065C14.528,23.535,14.7,23.519,14.876,23.5Zm-.552.073c.008.016.008.032.016.048a.563.563,0,0,0-.122.024h0c-.113.025-.235.041-.348.057-.041.008-.089.049-.105-.024-.016.008-.033.008-.049.017.04.121.138.024.219.072-.179.025-.348.041-.518.065v-.016l.154-.025v-.024c-.081-.008-.162-.016-.243-.016-.024,0-.057.033-.081.041a.414.414,0,0,1-.105.016c-.138.008-.275.008-.4.016-.008,0-.025-.008-.033-.008v-.025l1.62-.219Zm-1.693.21V23.8a4.359,4.359,0,0,1-.453.049v-.024Z" transform="translate(0 -0.005)" fill="#dd3a0a"/>
</svg>
