<svg xmlns="http://www.w3.org/2000/svg" width="26.234" height="26.741" viewBox="0 0 26.234 26.741">
  <g id="project" transform="translate(-4.439 0.127)">
    <g id="Group_98" data-name="Group 98" transform="translate(24.422 13.275)">
      <g id="Group_97" data-name="Group 97">
        <path id="Path_924" data-name="Path 924" d="M354.65,233.529a.455.455,0,0,0-.815.209l-.253,1.771a.444.444,0,0,1-.024.066,8.183,8.183,0,0,0,1.113-2.017Z" transform="translate(-353.559 -233.346)" fill="#fff" stroke="#707070" stroke-width="0.2"/>
      </g>
    </g>
    <g id="Group_100" data-name="Group 100" transform="translate(9.675 2.392)">
      <g id="Group_99" data-name="Group 99">
        <path id="Path_925" data-name="Path 925" d="M108.746,55.555a.5.5,0,0,1-.064,0l-2.7-.387a.455.455,0,0,1-.386-.515h0l.253-1.771a.455.455,0,0,0-.723-.428l-1.431,1.073a.455.455,0,0,1-.637-.091h0l-1.639-2.185a.455.455,0,0,1,.091-.637l1.431-1.073a.455.455,0,0,0-.209-.815l-1.771-.253a.455.455,0,0,1-.387-.515h0l.387-2.7a.455.455,0,0,1,.515-.387h0l1.771.253a.453.453,0,0,0,.455-.219.446.446,0,0,0-.027-.505L102.6,42.96a.455.455,0,0,1,.091-.637l.258-.193a8.348,8.348,0,0,0-1.254.034A8.2,8.2,0,0,0,98.2,57.208a2.611,2.611,0,0,1,1.235,2.187v1.84A1.366,1.366,0,0,0,100.8,62.6h3.642a1.366,1.366,0,0,0,1.366-1.366v-1.8a2.682,2.682,0,0,1,1.261-2.241,8.249,8.249,0,0,0,1.9-1.7A.455.455,0,0,1,108.746,55.555Zm-5.665,5.679h-.911V59.868h.911Zm-.911-2.276a2.907,2.907,0,0,0-1.867-2.713,6.374,6.374,0,0,1-1.075-11.33l.483.77a5.463,5.463,0,0,0,.921,9.712,3.809,3.809,0,0,1,2.448,3.561Z" transform="translate(-94.426 -42.12)" fill="#fff" stroke="#707070" stroke-width="0.2"/>
      </g>
    </g>
    <g id="Group_102" data-name="Group 102" transform="translate(16.053 25.149)">
      <g id="Group_101" data-name="Group 101">
        <path id="Path_926" data-name="Path 926" d="M206.5,441.987v.455a.911.911,0,0,0,.911.911h1.821a.911.911,0,0,0,.911-.911v-.455Z" transform="translate(-206.503 -441.987)" fill="#fff" stroke="#707070" stroke-width="0.2"/>
      </g>
    </g>
    <g id="Group_104" data-name="Group 104" transform="translate(5.006 11.791)">
      <g id="Group_103" data-name="Group 103">
        <path id="Path_927" data-name="Path 927" d="M20.591,213.34a8.617,8.617,0,0,1-.778-.569,2.726,2.726,0,1,1-2.753-3.961,8.67,8.67,0,0,1-.361-1.544l-.08.379a.911.911,0,0,1-1.407.563l-.947-.65-.83.828.652.948a.911.911,0,0,1-.562,1.408l-1.135.239v1.082l1.135.239a.911.911,0,0,1,.562,1.408l-.652.943.83.828.946-.652a.911.911,0,0,1,1.408.562l.239,1.137H17.94l.239-1.135a.911.911,0,0,1,1.408-.562l.946.65.977-.977A2.222,2.222,0,0,0,20.591,213.34Z" transform="translate(-12.391 -207.267)" fill="#fff" stroke="#707070" stroke-width="0.2"/>
      </g>
    </g>
    <g id="Group_106" data-name="Group 106" transform="translate(16.053 23.327)">
      <g id="Group_105" data-name="Group 105">
        <rect id="Rectangle_1562" data-name="Rectangle 1562" width="3.642" height="0.911" fill="#fff" stroke="#707070" stroke-width="0.2"/>
      </g>
    </g>
    <g id="Group_108" data-name="Group 108" transform="translate(16.781 1.08)">
      <g id="Group_107" data-name="Group 107">
        <path id="Path_928" data-name="Path 928" d="M231.764,25.831a1.366,1.366,0,0,1-.626-2.445l1.067-.8-1.093-1.457-1.067.8a1.366,1.366,0,0,1-2.172-1.284l.188-1.32-1.8-.257-.189,1.32a1.366,1.366,0,0,1-2.445.626l-.8-1.069-1.457,1.093.8,1.067a1.366,1.366,0,0,1-1.286,2.172l-1.32-.188-.259,1.8,1.32.188a1.366,1.366,0,0,1,.626,2.445l-1.066.8,1.093,1.457,1.067-.8a1.366,1.366,0,0,1,2.172,1.286l-.188,1.32,1.807.259.189-1.32a1.366,1.366,0,0,1,2.445-.626l.8,1.066,1.457-1.093-.8-1.069a1.366,1.366,0,0,1,1.284-2.172l1.32.188.257-1.8Zm-5.569,2.856a2.732,2.732,0,1,1,2.732-2.732A2.732,2.732,0,0,1,226.194,28.687Z" transform="translate(-219.303 -19.067)" fill="#fff" stroke="#707070" stroke-width="0.2"/>
      </g>
    </g>
    <g id="Group_110" data-name="Group 110" transform="translate(26.524 16.954)">
      <g id="Group_109" data-name="Group 109">
        <rect id="Rectangle_1563" data-name="Rectangle 1563" width="3.187" height="0.911" fill="#fff" stroke="#707070" stroke-width="0.2"/>
      </g>
    </g>
    <g id="Group_112" data-name="Group 112" transform="translate(25.778 19.335)">
      <g id="Group_111" data-name="Group 111" transform="translate(0 0)">
        <rect id="Rectangle_1564" data-name="Rectangle 1564" width="0.911" height="3.556" transform="matrix(0.64, -0.768, 0.768, 0.64, 0, 0.7)" fill="#fff" stroke="#707070" stroke-width="0.2"/>
      </g>
    </g>
    <g id="Group_114" data-name="Group 114" transform="translate(23.793 20.596)">
      <g id="Group_113" data-name="Group 113">
        <rect id="Rectangle_1565" data-name="Rectangle 1565" width="0.911" height="3.187" fill="#fff" stroke="#707070" stroke-width="0.2"/>
      </g>
    </g>
    <g id="Group_116" data-name="Group 116" transform="translate(4.56 6.951)">
      <g id="Group_115" data-name="Group 115" transform="translate(0 0)">
        <rect id="Rectangle_1566" data-name="Rectangle 1566" width="3.754" height="0.91" transform="translate(0 0.91) rotate(-14.035)" fill="#fff" stroke="#707070" stroke-width="0.2"/>
      </g>
    </g>
    <g id="Group_118" data-name="Group 118" transform="translate(5.317 2.47)">
      <g id="Group_117" data-name="Group 117" transform="translate(0 0)">
        <rect id="Rectangle_1567" data-name="Rectangle 1567" width="0.91" height="3.916" transform="matrix(0.581, -0.814, 0.814, 0.581, 0, 0.741)" fill="#fff" stroke="#707070" stroke-width="0.2"/>
      </g>
    </g>
    <g id="Group_120" data-name="Group 120" transform="translate(9.217 -0.005)">
      <g id="Group_119" data-name="Group 119" transform="translate(0)">
        <rect id="Rectangle_1568" data-name="Rectangle 1568" width="0.911" height="3.759" transform="matrix(0.969, -0.248, 0.248, 0.969, 0, 0.226)" fill="#fff" stroke="#707070" stroke-width="0.2"/>
      </g>
    </g>
  </g>
</svg>
