<svg xmlns="http://www.w3.org/2000/svg" width="21.342" height="21.315" viewBox="0 0 21.342 21.315">
  <g id="Group_134" data-name="Group 134" transform="translate(502.15 -7269.848)">
    <g id="skills_1_" data-name="skills (1)" transform="translate(-501.987 7270)">
      <g id="Group_129" data-name="Group 129" transform="translate(0 0)">
        <path id="Path_943" data-name="Path 943" d="M370.092,15.79l-3.751-3.751,1.687-1.687a1.205,1.205,0,0,1,1.7,0l2.046,2.046a1.206,1.206,0,0,1,0,1.7Z" transform="translate(-351.132 -9.999)" fill="#fff" stroke="#707070" stroke-width="0.2"/>
        <g id="Group_127" data-name="Group 127" transform="translate(0 0.012)">
          <path id="Path_944" data-name="Path 944" d="M99.33,115l1.875,1.875L114.478,103.6l-1.875-1.875" transform="translate(-95.518 -97.822)" fill="#fff" stroke="#707070" stroke-width="0.2"/>
          <path id="Path_945" data-name="Path 945" d="M70.543,59.665,68.667,57.79,55.395,71.062l1.875,1.875" transform="translate(-53.458 -55.762)" fill="#fff" stroke="#707070" stroke-width="0.2"/>
          <g id="Group_126" data-name="Group 126">
            <path id="Path_946" data-name="Path 946" d="M15.424,18.007l2.05,2.05,2.317-2.317-2.05-2.05A3.995,3.995,0,0,0,12.4,10.618l2.338,2.338L12.691,15l-2.338-2.338a3.995,3.995,0,0,0,5.071,5.346Z" transform="translate(-10.015 -10.28)" fill="#fff" stroke="#707070" stroke-width="0.2"/>
            <path id="Path_947" data-name="Path 947" d="M282.1,280.317a3.995,3.995,0,0,0-5.071-5.346l-2.05-2.05-2.317,2.318,2.05,2.05a3.995,3.995,0,0,0,5.346,5.071l-2.338-2.338,2.043-2.043Z" transform="translate(-261.445 -261.71)" fill="#fff" stroke="#707070" stroke-width="0.2"/>
          </g>
        </g>
        <g id="Group_128" data-name="Group 128" transform="translate(0.078 15.312)">
          <path id="Path_948" data-name="Path 948" d="M42.175,372.486l-3.751-3.751-.757,2.283,2.224,2.224Z" transform="translate(-36.566 -368.735)" fill="#fff" stroke="#707070" stroke-width="0.2"/>
          <path id="Path_949" data-name="Path 949" d="M15.166,424.448l-2.224-2.224-1.1,3.327Z" transform="translate(-11.839 -419.941)" fill="#fff" stroke="#707070" stroke-width="0.2"/>
        </g>
      </g>
    </g>
  </g>
</svg>
