<svg id="Group_94" data-name="Group 94" xmlns="http://www.w3.org/2000/svg" width="15.663" height="15" viewBox="0 0 15.663 15">
  <rect id="Rectangle_1457" data-name="Rectangle 1457" width="15" height="15" transform="translate(0.243)" fill="none"/>
  <path id="Path_2" data-name="Path 2" d="M42.96,14.7A9.055,9.055,0,0,0,52.1,5.568V5.133a7.073,7.073,0,0,0,1.566-1.653A7.223,7.223,0,0,1,51.835,4a3.385,3.385,0,0,0,1.392-1.74,7.981,7.981,0,0,1-2,.783A3.108,3.108,0,0,0,48.877,2a3.269,3.269,0,0,0-3.22,3.22,1.7,1.7,0,0,0,.087.7,9,9,0,0,1-6.613-3.394A3.332,3.332,0,0,0,38.7,4.175a3.457,3.457,0,0,0,1.392,2.7,2.933,2.933,0,0,1-1.479-.435h0A3.18,3.18,0,0,0,41.22,9.57a2.683,2.683,0,0,1-.87.087,1.481,1.481,0,0,1-.609-.087,3.3,3.3,0,0,0,3.046,2.262,6.57,6.57,0,0,1-4,1.392A2.409,2.409,0,0,1,38,13.138,8.213,8.213,0,0,0,42.96,14.7" transform="translate(-38 -0.232)" fill="#f5f5f7" fill-rule="evenodd"/>
</svg>
